<svg width="96" height="96" xmlns="http://www.w3.org/2000/svg" xmlns:xlink="http://www.w3.org/1999/xlink" xml:space="preserve" overflow="hidden"><g transform="translate(-1083 -332)"><path d="M1174.29 369.022C1174.23 368.125 1173.57 367.38 1172.69 367.2L1162.12 365.041C1161.46 364.905 1160.78 365.11 1160.31 365.586L1158.17 367.721 1143.97 353.521C1143.8 356.431 1142.23 359.077 1139.76 360.621L1152.51 373.378 1150.45 375.442C1149.98 375.911 1149.78 376.581 1149.9 377.232L1151.94 387.916C1152.12 388.809 1152.87 389.474 1153.78 389.535L1164.38 390.242C1164.43 390.242 1164.47 390.247 1164.52 390.247 1165.62 390.283 1166.55 389.417 1166.58 388.312 1166.62 387.208 1165.75 386.283 1164.65 386.247L1155.58 385.647 1154.03 377.522 1162.37 369.175 1170.4 370.81 1171.01 379.894C1171.08 380.997 1172.03 381.832 1173.14 381.758 1174.24 381.685 1175.07 380.731 1175 379.628Z"/><path d="M1125.94 382.941C1125.94 379.727 1125.02 376.579 1123.29 373.87L1116.24 382.3C1112.58 386.677 1106.08 387.265 1101.7 383.613 1097.32 379.962 1096.74 373.455 1100.39 369.078 1100.78 368.602 1101.22 368.162 1101.7 367.765L1101.96 367.547C1095.93 370.298 1092.06 376.314 1092.06 382.941L1092.06 402 1125.94 402Z"/><path d="M1126 353C1126 352.391 1126.06 351.784 1126.18 351.188L1103.62 370.065C1100.52 372.661 1100.12 377.278 1102.71 380.377 1105.31 383.476 1109.93 383.883 1113.03 381.287 1113.35 381.011 1113.66 380.706 1113.94 380.377L1130.39 360.714C1127.67 359.093 1126.01 356.164 1126 353ZM1110.92 375.906C1110.14 376.687 1108.88 376.687 1108.09 375.906 1107.31 375.125 1107.31 373.859 1108.09 373.078 1108.88 372.297 1110.14 372.297 1110.92 373.078 1110.92 373.078 1110.92 373.078 1110.92 373.078 1111.7 373.859 1111.7 375.125 1110.92 375.906Z"/><path d="M1126 406 1092 406C1089.79 406 1088 407.791 1088 410L1088 414 1130 414 1130 410C1130 407.791 1128.21 406 1126 406Z"/><path d="M1135 347C1131.69 347 1129 349.686 1129 353 1129 356.314 1131.69 359 1135 359 1138.31 359 1141 356.314 1141 353 1141 349.686 1138.31 347 1135 347ZM1135 354.5C1134.17 354.5 1133.5 353.828 1133.5 353 1133.5 352.172 1134.17 351.5 1135 351.5 1135.83 351.5 1136.5 352.172 1136.5 353 1136.5 353.828 1135.83 354.5 1135 354.5Z"/></g></svg>